<?xml version="1.0" encoding="UTF-8" standalone="no"?>
<!-- Created with Inkscape (http://www.inkscape.org/) -->

<svg
   xmlns:dc="http://purl.org/dc/elements/1.1/"
   xmlns:cc="http://creativecommons.org/ns#"
   xmlns:rdf="http://www.w3.org/1999/02/22-rdf-syntax-ns#"
   xmlns:svg="http://www.w3.org/2000/svg"
   xmlns="http://www.w3.org/2000/svg"
   xmlns:sodipodi="http://sodipodi.sourceforge.net/DTD/sodipodi-0.dtd"
   xmlns:inkscape="http://www.inkscape.org/namespaces/inkscape"
   width="273.18936"
   height="273.18936"
   viewBox="0 0 72.28135 72.281354"
   version="1.1"
   id="svg8"
   inkscape:version="0.92.4 (5da689c313, 2019-01-14)"
   sodipodi:docname="logo.svg">
  <defs
     id="defs2" />
  <sodipodi:namedview
     id="base"
     pagecolor="#ffffff"
     bordercolor="#666666"
     borderopacity="1.0"
     inkscape:pageopacity="0.0"
     inkscape:pageshadow="2"
     inkscape:zoom="0.98994949"
     inkscape:cx="247.54639"
     inkscape:cy="60.875126"
     inkscape:document-units="px"
     inkscape:current-layer="layer1"
     showgrid="false"
     units="px"
     inkscape:snap-smooth-nodes="true"
     inkscape:object-paths="true"
     fit-margin-top="0"
     fit-margin-left="0"
     fit-margin-right="0"
     fit-margin-bottom="0"
     inkscape:window-width="1440"
     inkscape:window-height="837"
     inkscape:window-x="-8"
     inkscape:window-y="-8"
     inkscape:window-maximized="1"
     inkscape:snap-nodes="false" />
  <metadata
     id="metadata5">
    <rdf:RDF>
      <cc:Work
         rdf:about="">
        <dc:format>image/svg+xml</dc:format>
        <dc:type
           rdf:resource="http://purl.org/dc/dcmitype/StillImage" />
        <dc:title />
      </cc:Work>
    </rdf:RDF>
  </metadata>
  <g
     inkscape:label="Layer 1"
     inkscape:groupmode="layer"
     id="layer1"
     transform="translate(-41.256332,-15.169813)">
    <text
       xml:space="preserve"
       style="font-style:normal;font-weight:normal;font-size:10.58333302px;line-height:1.25;font-family:sans-serif;letter-spacing:0px;word-spacing:0px;fill:#000000;fill-opacity:1;stroke:none;stroke-width:0.26458332"
       x="27.862848"
       y="60.266006"
       id="text845"><tspan
         sodipodi:role="line"
         id="tspan843"
         x="27.862848"
         y="69.629776"
         style="stroke-width:0.26458332" /></text>
    <g
       id="g4673"
       transform="translate(97.126992,-78.361078)">
      <path
         inkscape:connector-curvature="0"
         id="path4755"
         d="m -34.172003,137.73065 v 2.74505"
         style="opacity:0.331;fill:#1d1d5b;fill-opacity:1;stroke:#f9f9f9;stroke-width:0.26458332px;stroke-linecap:round;stroke-linejoin:miter;stroke-opacity:1" />
      <path
         inkscape:connector-curvature="0"
         id="path4748"
         d="m -34.172003,136.28215 v 0.64492"
         style="opacity:0.331;fill:#1d1d5b;fill-opacity:1;stroke:#f9f9f9;stroke-width:0.26458332;stroke-linecap:round;stroke-linejoin:miter;stroke-miterlimit:4;stroke-dasharray:none;stroke-opacity:1" />
      <path
         inkscape:connector-curvature="0"
         id="rect4577"
         d="m -26.899842,130.44598 c -4.566052,1.48298 -9.131705,2.96721 -13.697873,4.44985 l 0.997873,0.0909 v 30.82551 h 12.7 12.699999 v -30.82551 l 0.997872,-0.0909 c -4.566166,-1.48264 -9.131819,-2.96687 -13.697871,-4.44985 z"
         style="opacity:1;fill:#007693;fill-opacity:1;fill-rule:evenodd;stroke:none;stroke-width:0.26458332;stroke-linecap:round;stroke-linejoin:miter;stroke-miterlimit:4;stroke-dasharray:none;stroke-dashoffset:0.65120572;stroke-opacity:1;paint-order:normal" />
      <g
         transform="translate(15.03603,2.4017144)"
         id="g4786">
        <g
           id="g4780"
           transform="translate(-0.05679794,0.07475498)">
          <path
             d="m -35.212882,140.53931 q -0.239206,-0.0676 -0.360836,-0.22299 -0.120279,-0.15407 -0.120279,-0.40814 v -0.26894 q 0,-0.3284 -0.286507,-0.3284 v -0.19596 q 0.286507,0 0.286507,-0.32705 v -0.2811 q 0.0027,-0.24731 0.120279,-0.39868 0.118927,-0.15271 0.360836,-0.22163 l 0.05136,0.15541 q -0.282452,0.0906 -0.282452,0.47166 v 0.27299 q 0,0.30678 -0.225692,0.42706 0.225692,0.12163 0.225692,0.43111 v 0.2784 q 0.0041,0.37165 0.282452,0.46084 z"
             style="font-style:normal;font-variant:normal;font-weight:normal;font-stretch:normal;font-size:medium;line-height:1.25;font-family:Roboto;-inkscape-font-specification:'Roboto, Normal';font-variant-ligatures:normal;font-variant-caps:normal;font-variant-numeric:normal;font-feature-settings:normal;text-align:start;letter-spacing:0px;word-spacing:0px;writing-mode:lr-tb;text-anchor:start;fill:#ffffff;fill-opacity:1;stroke:none;stroke-width:0.0691941"
             id="path4754-8"
             inkscape:connector-curvature="0" />
          <path
             d="m -33.881702,140.38389 q 0.274344,-0.0878 0.283804,-0.44733 v -0.29732 q 0,-0.31218 0.244612,-0.4257 -0.244612,-0.11082 -0.244612,-0.42571 v -0.27434 q 0,-0.38111 -0.282453,-0.47166 l 0.05136,-0.15541 q 0.239207,0.0676 0.359485,0.22028 0.120279,0.15136 0.121631,0.40138 v 0.28381 q 0,0.32299 0.286507,0.32299 v 0.19596 q -0.286507,0 -0.286507,0.3284 v 0.273 q 0,0.25407 -0.122982,0.40678 -0.12163,0.15272 -0.358134,0.22029 z"
             style="font-style:normal;font-variant:normal;font-weight:normal;font-stretch:normal;font-size:medium;line-height:1.25;font-family:Roboto;-inkscape-font-specification:'Roboto, Normal';font-variant-ligatures:normal;font-variant-caps:normal;font-variant-numeric:normal;font-feature-settings:normal;text-align:start;letter-spacing:0px;word-spacing:0px;writing-mode:lr-tb;text-anchor:start;fill:#ffffff;fill-opacity:1;stroke:none;stroke-width:0.0691941"
             id="path4756-0"
             inkscape:connector-curvature="0" />
        </g>
        <path
           inkscape:connector-curvature="0"
           style="opacity:1;fill:#ff8080;fill-opacity:1;fill-rule:evenodd;stroke:none;stroke-width:0.79374999;stroke-linecap:round;stroke-linejoin:miter;stroke-miterlimit:4;stroke-dasharray:none;stroke-dashoffset:0.65120572;stroke-opacity:1;paint-order:normal"
           d="m -34.842317,138.84527 a 0.26458331,0.26458331 0 0 0 -0.264584,0.26459 0.26458331,0.26458331 0 0 0 0.0052,0.0527 0.26458331,0.26458331 0 0 0 5.29e-4,10e-4 c 0.02771,0.26747 0.253846,0.46211 0.523483,0.73174 0.269637,-0.26963 0.495771,-0.46427 0.523484,-0.73174 3.7e-5,-2.6e-4 5.29e-4,-7.9e-4 5.29e-4,-10e-4 a 0.26458331,0.26458331 0 0 0 0.0052,-0.0527 0.26458331,0.26458331 0 0 0 -0.264583,-0.26459 0.26458331,0.26458331 0 0 0 -0.264583,0.26459 0.26458331,0.26458331 0 0 0 -0.264584,-0.26459 z"
           id="path4763-7" />
      </g>
      <rect
         y="120.15788"
         x="-32.203201"
         height="14.2875"
         width="10.583333"
         id="rect4937"
         style="opacity:1;fill:#a8dec1;fill-opacity:1;fill-rule:evenodd;stroke:none;stroke-width:0.31680936;stroke-linecap:round;stroke-linejoin:miter;stroke-miterlimit:4;stroke-dasharray:none;stroke-dashoffset:0.65120572;stroke-opacity:1;paint-order:normal" />
      <path
         transform="scale(0.26458333)"
         id="path4701"
         d="m -121.71289,475.69727 v 20.0957 l 19.95898,-5.34766 z"
         style="fill:#96ceb0;fill-opacity:1;stroke:none;stroke-width:0.99999994px;stroke-linecap:butt;stroke-linejoin:miter;stroke-opacity:1"
         inkscape:connector-curvature="0" />
      <path
         inkscape:connector-curvature="0"
         id="rect4541"
         d="m -37.598223,116.69785 a 1.2303124,1.1890269 0 0 0 -1.230416,1.18752 1.2303124,1.1890269 0 0 0 0,0.002 v 1.18908 a 2.6458331,2.6458331 0 0 0 2.645833,2.64583 h 0.264584 v -0.0134 -2.63239 -1.19063 h -0.449585 a 1.2303124,1.1890269 0 0 0 -1.230416,-1.18752 z"
         style="opacity:1;fill:#ff8080;fill-opacity:1;fill-rule:evenodd;stroke:none;stroke-width:0.0273429;stroke-linecap:round;stroke-linejoin:miter;stroke-miterlimit:4;stroke-dasharray:none;stroke-dashoffset:0.65120572;stroke-opacity:1;paint-order:normal" />
      <path
         inkscape:connector-curvature="0"
         style="opacity:1;fill:#ff8080;fill-opacity:1;fill-rule:evenodd;stroke:none;stroke-width:0.0273429;stroke-linecap:round;stroke-linejoin:miter;stroke-miterlimit:4;stroke-dasharray:none;stroke-dashoffset:0.65120572;stroke-opacity:1;paint-order:normal"
         d="m -16.378845,116.69785 a 1.2303124,1.1890269 0 0 1 1.230416,1.18753 1.2303124,1.1890269 0 0 1 0,0.002 v 1.18907 a 2.6458331,2.6458331 0 0 1 -2.645834,2.64583 h -0.264583 v -0.0134 -2.6324 -1.19062 h 0.449585 a 1.2303124,1.1890269 0 0 1 1.230416,-1.18753 z"
         id="path4566" />
      <path
         transform="scale(0.26458333)"
         id="rect4658"
         d="m -99.875,406.64453 -30.5,6.75 c 0,0 -6.20257,13.37393 -9.09375,19.12695 0.18826,1.52972 0.4685,3.04674 0.8418,4.54493 l 2.87304,22.98632 c 0,10.55037 19.52627,29.60667 34,30.39258 14.47375,-0.78591 34.000004,-19.84221 34.000004,-30.39258 l 2.873047,-22.98632 c 0.44409,-1.78229 0.741912,-3.59336 0.923828,-5.41797 -0.80759,-0.83167 -1.650237,-1.64559 -2.542969,-2.37891 -3.500001,-2.87497 -3.749276,-3.62489 -7.003906,-9.56445 -3.254627,-5.93957 -9.246094,-6.81054 -12.121094,-9.68555 -2.875,-2.87497 -14.25,-3.375 -14.25,-3.375 z"
         style="opacity:1;fill:#cbeddb;fill-opacity:1;fill-rule:evenodd;stroke:none;stroke-width:0.40122893;stroke-linecap:round;stroke-linejoin:miter;stroke-miterlimit:4;stroke-dasharray:none;stroke-dashoffset:0.65120572;stroke-opacity:1;paint-order:normal"
         inkscape:connector-curvature="0" />
      <g
         transform="translate(0,-0.46772167)"
         id="g4632">
        <path
           inkscape:connector-curvature="0"
           style="opacity:1;fill:#ff8080;fill-opacity:1;fill-rule:evenodd;stroke:none;stroke-width:0.81140101;stroke-linecap:round;stroke-linejoin:miter;stroke-miterlimit:4;stroke-dasharray:none;stroke-dashoffset:0.65120572;stroke-opacity:1;paint-order:normal"
           d="m -101.71289,445.30664 c -0.87877,-0.001 -1.96703,0.21695 -2.41211,1.375 -2.7148,7.0636 -3.58789,9.93109 -3.58789,13.53906 0,2.03101 3.77242,4.35938 6,4.35938 2.227575,0 5.999999,-2.32837 5.999999,-4.35938 0,-3.60797 -0.873086,-6.47543 -3.58789,-13.53906 -0.445077,-1.15805 -1.533339,-1.37641 -2.412109,-1.375 z"
           id="path4561"
           transform="scale(0.26458333)" />
        <circle
           r="0.70490652"
           cy="122.00027"
           cx="-26.911535"
           id="circle4574"
           style="opacity:1;fill:#ff9191;fill-opacity:1;fill-rule:evenodd;stroke:none;stroke-width:0.03625049;stroke-linecap:round;stroke-linejoin:miter;stroke-miterlimit:4;stroke-dasharray:none;stroke-dashoffset:0.65120572;stroke-opacity:1;paint-order:normal" />
      </g>
      <path
         sodipodi:nodetypes="cccc"
         inkscape:connector-curvature="0"
         id="path4607"
         d="m -36.976555,113.42822 c 0,2.48189 0.439626,4.06789 0.684191,6.02447 0,0 2.853093,-3.34611 2.853093,-7.16548 z"
         style="fill:#007693;fill-opacity:1;stroke:none;stroke-width:0.26458332px;stroke-linecap:butt;stroke-linejoin:miter;stroke-opacity:1" />
      <path
         sodipodi:nodetypes="cccccccc"
         inkscape:connector-curvature="0"
         transform="scale(0.26458333)"
         id="path4609"
         d="m -126.56055,411.85352 c 0,7.35587 -1.34265,6.9562 1.52344,9.94531 l -1.34766,2.59375 c 0.95125,2.83517 1.99689,5.34783 2.55274,9.52734 1.43618,-1.43619 3.58671,-3.75352 3.76562,-6.22461 2.3316,2.24761 4.39844,3.22266 4.39844,3.22266 -1.94738,-7.26773 6.03906,-9.68408 6.03906,-19.06445 z"
         style="fill:#007693;fill-opacity:1;stroke:none;stroke-width:0.99999994px;stroke-linecap:butt;stroke-linejoin:miter;stroke-opacity:1" />
      <path
         style="fill:#007693;fill-opacity:1;stroke:none;stroke-width:0.26458332px;stroke-linecap:butt;stroke-linejoin:miter;stroke-opacity:1"
         d="m -16.868412,113.42822 c 0,2.48189 -0.338694,3.66966 -0.583259,5.62624 0,0 -2.77413,-3.32823 -2.77413,-5.62624 1.038942,-0.44103 2.187603,-0.27861 3.357389,0 z"
         id="path4611"
         inkscape:connector-curvature="0"
         sodipodi:nodetypes="cccc" />
      <path
         sodipodi:nodetypes="cccc"
         inkscape:connector-curvature="0"
         id="path4613"
         d="m -19.4481,111.04697 c 0,2.48189 -0.955401,4.11324 -0.440156,6.03616 0,0 -2.882154,-2.34909 -2.882154,-6.03616 z"
         style="fill:#007693;fill-opacity:1;stroke:none;stroke-width:0.26458332px;stroke-linecap:butt;stroke-linejoin:miter;stroke-opacity:1" />
      <path
         sodipodi:nodetypes="scccccccs"
         inkscape:connector-curvature="0"
         id="path4627"
         d="m -26.922388,103.37405 c -5.552764,0 -10.054169,4.50141 -10.054167,10.05417 h 2.726965 l 0.810287,-1.14101 1.676384,0.42374 1.452625,-2.90525 c 0,2.62561 7.396713,5.6029 9.247094,4.53458 l 4.194979,-0.91206 c 2e-6,-5.55276 -4.501403,-10.05417 -10.054167,-10.05417 z"
         style="opacity:1;fill:#007693;fill-opacity:1;fill-rule:evenodd;stroke:none;stroke-width:0.03296448;stroke-linecap:round;stroke-linejoin:miter;stroke-miterlimit:4;stroke-dasharray:none;stroke-dashoffset:0.65120572;stroke-opacity:1;paint-order:normal" />
      <path
         id="path4631"
         transform="scale(0.26458333)"
         d="m -107.2207,421.8457 v 5.7461 h 3.44726 c 1.29613,2.24496 4.502718,3.23246 6.550784,3.78125 -1.608378,-3.89749 -1.958952,-6.5964 -2.552735,-9.52735 z"
         style="fill:#007693;fill-opacity:1;stroke:none;stroke-width:0.99999994px;stroke-linecap:butt;stroke-linejoin:miter;stroke-opacity:1"
         inkscape:connector-curvature="0" />
      <g
         style="fill:#1d1d5b;fill-opacity:1"
         id="g4775">
        <path
           style="opacity:1;fill:#1d1d5b;fill-opacity:1;fill-rule:evenodd;stroke:none;stroke-width:0.10434781;stroke-linecap:round;stroke-linejoin:miter;stroke-miterlimit:4;stroke-dasharray:none;stroke-dashoffset:0.65120572;stroke-opacity:1;paint-order:normal"
           d="m -122.26758,443.7168 a 2.9999999,2.9999999 0 0 0 -0.76953,2 2.9999999,2.9999999 0 0 0 3,3 2.9999999,2.9999999 0 0 0 3,-3 2.9999999,2.9999999 0 0 0 -0.76758,-2 z"
           id="circle4586"
           transform="scale(0.26458333)"
           inkscape:connector-curvature="0" />
        <rect
           style="opacity:1;fill:#1d1d5b;fill-opacity:1;fill-rule:evenodd;stroke:none;stroke-width:0.01270979;stroke-linecap:round;stroke-linejoin:miter;stroke-miterlimit:4;stroke-dasharray:none;stroke-dashoffset:0.65120572;stroke-opacity:0.60784314;paint-order:normal"
           id="rect4673"
           width="2.6458333"
           height="0.52916664"
           x="-33.082485"
           y="117.39993" />
      </g>
      <g
         style="fill:#1d1d5b;fill-opacity:1"
         id="g4771">
        <path
           style="opacity:1;fill:#1d1d5b;fill-opacity:1;fill-rule:evenodd;stroke:none;stroke-width:0.10434781;stroke-linecap:round;stroke-linejoin:miter;stroke-miterlimit:4;stroke-dasharray:none;stroke-dashoffset:0.65120572;stroke-opacity:1;paint-order:normal"
           d="m -86.767578,443.7168 a 2.9999999,2.9999999 0 0 0 -0.769531,2 2.9999999,2.9999999 0 0 0 3,3 2.9999999,2.9999999 0 0 0 3,-3 2.9999999,2.9999999 0 0 0 -0.767579,-2 z"
           transform="scale(0.26458333)"
           id="circle4651"
           inkscape:connector-curvature="0" />
        <rect
           y="117.39993"
           x="-23.689777"
           height="0.52916664"
           width="2.6458333"
           id="rect4689"
           style="opacity:1;fill:#1d1d5b;fill-opacity:1;fill-rule:evenodd;stroke:none;stroke-width:0.01270979;stroke-linecap:round;stroke-linejoin:miter;stroke-miterlimit:4;stroke-dasharray:none;stroke-dashoffset:0.65120572;stroke-opacity:0.60784314;paint-order:normal" />
      </g>
      <path
         style="fill:#007693;fill-opacity:1;stroke:none;stroke-width:0.26458332px;stroke-linecap:butt;stroke-linejoin:miter;stroke-opacity:1"
         d="m -28.509888,114.96576 c -1.575458,0.90959 -3.716072,1.22129 -5.86527,0.64542 1.403005,1.40301 5.218322,1.78956 5.86527,-0.64542 z"
         id="path4710"
         inkscape:connector-curvature="0"
         sodipodi:nodetypes="ccc" />
      <path
         sodipodi:nodetypes="ccc"
         inkscape:connector-curvature="0"
         id="path4712"
         d="m -25.334888,114.96576 c 1.575458,0.90959 3.716072,1.22129 5.86527,0.64542 -1.403005,1.40301 -5.218322,1.78956 -5.86527,-0.64542 z"
         style="fill:#007693;fill-opacity:1;stroke:none;stroke-width:0.26458332px;stroke-linecap:butt;stroke-linejoin:miter;stroke-opacity:1" />
      <g
         style="stroke:#ffe680"
         transform="translate(31.39898,0.91333504)"
         id="g4767">
        <path
           inkscape:connector-curvature="0"
           style="opacity:1;fill:none;fill-opacity:1;fill-rule:evenodd;stroke:#ffe680;stroke-width:0.5291667;stroke-linecap:round;stroke-linejoin:miter;stroke-miterlimit:4;stroke-dasharray:none;stroke-dashoffset:0.65120572;stroke-opacity:1;paint-order:normal"
           d="m -60.358042,117.02464 a 2.6458333,2.6458333 0 0 1 -2.645834,2.64584 2.6458333,2.6458333 0 0 1 -2.645833,-2.64584 2.6458333,2.6458333 0 0 1 2.645833,-2.64583 2.6458333,2.6458333 0 0 1 2.645834,2.64583 z"
           id="path4730" />
        <path
           style="opacity:1;fill:none;fill-opacity:1;fill-rule:evenodd;stroke:#ffe680;stroke-width:0.5291667;stroke-linecap:round;stroke-linejoin:miter;stroke-miterlimit:4;stroke-dasharray:none;stroke-dashoffset:0.65120572;stroke-opacity:1;paint-order:normal"
           d="m -50.993026,117.02403 a 2.6458333,2.6458333 0 0 1 -2.645833,2.64583 2.6458333,2.6458333 0 0 1 -2.645833,-2.64583 2.6458333,2.6458333 0 0 1 2.645833,-2.64583 2.6458333,2.6458333 0 0 1 2.645833,2.64583 z"
           id="circle4732"
           inkscape:connector-curvature="0" />
        <path
           style="opacity:1;fill:none;fill-opacity:1;fill-rule:evenodd;stroke:#ffe680;stroke-width:0.47840822;stroke-linecap:round;stroke-linejoin:miter;stroke-miterlimit:4;stroke-dasharray:none;stroke-dashoffset:0.65120572;stroke-opacity:1;paint-order:normal"
           d="m -60.358042,117.41325 a 2.1420459,2.6712124 0 0 1 2.036754,-1.84403 2.1420459,2.6712124 0 0 1 2.036596,1.84342"
           id="circle4734"
           inkscape:connector-curvature="0" />
      </g>
      <path
         sodipodi:nodetypes="ccc"
         inkscape:connector-curvature="0"
         id="path4779"
         d="m -29.518209,124.24454 c 0,-0.91777 3.575126,0.98473 5.969749,-0.3978 -2.240433,2.24043 -5.969749,1.11473 -5.969749,0.3978 z"
         style="fill:#f9f9f9;stroke:none;stroke-width:0.40123129px;stroke-linecap:butt;stroke-linejoin:miter;stroke-opacity:1" />
      <path
         inkscape:connector-curvature="0"
         id="path4781"
         d="m -27.457238,125.39661 a 0.13230489,0.13230489 0 0 0 -0.01964,0.26304 c 0.180835,0.0317 0.367263,0.0475 0.554488,0.0475 0.187171,0 0.373702,-0.0159 0.554489,-0.0475 a 0.13230489,0.13230489 0 1 0 -0.04599,-0.26045 c -0.165248,0.0289 -0.33641,0.0434 -0.508497,0.0434 -0.172138,0 -0.343718,-0.0145 -0.509011,-0.0434 a 0.13230489,0.13230489 0 0 0 -0.02584,-0.003 z"
         style="color:#000000;font-style:normal;font-variant:normal;font-weight:normal;font-stretch:normal;font-size:medium;line-height:normal;font-family:sans-serif;font-variant-ligatures:normal;font-variant-position:normal;font-variant-caps:normal;font-variant-numeric:normal;font-variant-alternates:normal;font-feature-settings:normal;text-indent:0;text-align:start;text-decoration:none;text-decoration-line:none;text-decoration-style:solid;text-decoration-color:#000000;letter-spacing:normal;word-spacing:normal;text-transform:none;writing-mode:lr-tb;direction:ltr;text-orientation:mixed;dominant-baseline:auto;baseline-shift:baseline;text-anchor:start;white-space:normal;shape-padding:0;clip-rule:nonzero;display:inline;overflow:visible;visibility:visible;opacity:1;isolation:auto;mix-blend-mode:normal;color-interpolation:sRGB;color-interpolation-filters:linearRGB;solid-color:#000000;solid-opacity:1;vector-effect:none;fill:#a8dec1;fill-opacity:1;fill-rule:evenodd;stroke:none;stroke-width:0.26458332;stroke-linecap:round;stroke-linejoin:miter;stroke-miterlimit:4;stroke-dasharray:none;stroke-dashoffset:0.65120572;stroke-opacity:1;paint-order:normal;color-rendering:auto;image-rendering:auto;shape-rendering:auto;text-rendering:auto;enable-background:accumulate" />
      <g
         id="g4658">
        <path
           style="fill:#007693;fill-opacity:1;stroke:none;stroke-width:0.26458332px;stroke-linecap:butt;stroke-linejoin:miter;stroke-opacity:1"
           d="m -21.666203,105.38542 c -1.903988,-0.93188 -2.632026,-2.07443 -4.349222,-6.139448 -0.657089,2.452288 -0.03089,7.518698 4.349222,6.139448 z"
           id="path4899"
           inkscape:connector-curvature="0"
           sodipodi:nodetypes="ccc" />
        <path
           sodipodi:nodetypes="ccc"
           inkscape:connector-curvature="0"
           id="path4901"
           d="m -26.550617,105.95403 c 1.269347,-0.62127 2.702821,-0.82073 3.847638,-3.53079 0.361881,1.95936 -0.92751,4.4503 -3.847638,3.53079 z"
           style="fill:#007693;fill-opacity:1;stroke:none;stroke-width:0.1763919px;stroke-linecap:butt;stroke-linejoin:miter;stroke-opacity:1" />
      </g>
      <circle
         r="0.39687499"
         cy="121.62305"
         cx="-17.331244"
         id="path4939"
         style="opacity:1;fill:#1d1d5b;fill-opacity:1;fill-rule:evenodd;stroke:none;stroke-width:0.12959184;stroke-linecap:round;stroke-linejoin:miter;stroke-miterlimit:4;stroke-dasharray:none;stroke-dashoffset:0.65120572;stroke-opacity:1;paint-order:normal" />
      <path
         style="opacity:1;fill:#007693;fill-opacity:1;stroke:none;stroke-width:1.91549659px;stroke-linecap:butt;stroke-linejoin:miter;stroke-opacity:1"
         d="m -107.11719,413.45703 -4.31836,6.20508 c -4.88166,0.90078 -6.34386,0.12317 -3.45507,4.74609 2.63133,4.21091 8.73904,6.24958 12.6621,7.30078 -3.08084,-7.46562 -3.75128,-12.63773 -4.88867,-18.25195 z"
         id="path4660"
         inkscape:connector-curvature="0"
         sodipodi:nodetypes="ccscc"
         transform="scale(0.26458333)" />
      <path
         sodipodi:nodetypes="cccc"
         inkscape:connector-curvature="0"
         id="path4698"
         d="m -32.203201,131.05234 c 0.42626,1.59082 2.015415,2.80648 5.291666,3.39305 l -6.941989,0.67611 z"
         style="fill:#ffe680;fill-opacity:1;stroke:none;stroke-width:0.26458332px;stroke-linecap:butt;stroke-linejoin:miter;stroke-opacity:1" />
      <path
         style="fill:#ffe680;fill-opacity:1;stroke:none;stroke-width:0.26458332px;stroke-linecap:butt;stroke-linejoin:miter;stroke-opacity:1"
         d="m -21.619869,131.05234 c -0.42626,1.59082 -2.015415,2.80648 -5.291666,3.39305 l 6.941989,0.67611 z"
         id="path4700"
         inkscape:connector-curvature="0"
         sodipodi:nodetypes="cccc" />
      <rect
         ry="3.175"
         rx="3.175"
         y="134.74942"
         x="-42.786533"
         height="23.8125"
         width="6.3499999"
         id="rect4727"
         style="opacity:1;fill:#007693;fill-opacity:1;fill-rule:evenodd;stroke:none;stroke-width:0.29815161;stroke-linecap:round;stroke-linejoin:miter;stroke-miterlimit:4;stroke-dasharray:none;stroke-dashoffset:0.65120572;stroke-opacity:1;paint-order:normal" />
      <rect
         transform="scale(-1,1)"
         style="opacity:1;fill:#007693;fill-opacity:1;fill-rule:evenodd;stroke:none;stroke-width:0.29815161;stroke-linecap:round;stroke-linejoin:miter;stroke-miterlimit:4;stroke-dasharray:none;stroke-dashoffset:0.65120572;stroke-opacity:1;paint-order:normal"
         id="rect4743"
         width="6.3499999"
         height="23.8125"
         x="11.036535"
         y="134.74942"
         rx="3.175"
         ry="3.175" />
      <circle
         r="2.6458333"
         cy="155.22092"
         cx="-14.211535"
         id="path4793"
         style="opacity:1;fill:#ffb17d;fill-opacity:1;fill-rule:evenodd;stroke:none;stroke-width:0.51158267;stroke-linecap:round;stroke-linejoin:miter;stroke-miterlimit:4;stroke-dasharray:none;stroke-dashoffset:0.65120572;stroke-opacity:1;paint-order:normal" />
      <circle
         style="opacity:1;fill:#ffb17d;fill-opacity:1;fill-rule:evenodd;stroke:none;stroke-width:0.51158267;stroke-linecap:round;stroke-linejoin:miter;stroke-miterlimit:4;stroke-dasharray:none;stroke-dashoffset:0.65120572;stroke-opacity:1;paint-order:normal"
         id="circle4564"
         cx="-39.611534"
         cy="155.22092"
         r="2.6458333" />
      <g
         style="fill:#96ceb0;fill-opacity:1"
         transform="rotate(-60,-21.514317,139.56902)"
         id="g4617">
        <rect
           style="opacity:1;fill:#96ceb0;fill-opacity:1;fill-rule:evenodd;stroke:none;stroke-width:0.58396554;stroke-linecap:round;stroke-linejoin:miter;stroke-miterlimit:4;stroke-dasharray:none;stroke-dashoffset:0.65120572;stroke-opacity:1;paint-order:normal"
           id="rect4607"
           width="1.3229166"
           height="3.175"
           x="-21.619869"
           y="134.49353"
           rx="0.66145831"
           ry="0.66145831" />
        <rect
           style="opacity:1;fill:#96ceb0;fill-opacity:1;fill-rule:evenodd;stroke:none;stroke-width:0.79374999;stroke-linecap:round;stroke-linejoin:miter;stroke-miterlimit:4;stroke-dasharray:none;stroke-dashoffset:0.65120572;stroke-opacity:1;paint-order:normal"
           id="rect4609"
           width="0.70354176"
           height="1.7271988"
           x="-21.000494"
           y="135.94002" />
      </g>
      <g
         transform="translate(0.12787034,0.2577996)"
         id="g4629">
        <g
           id="g4683"
           transform="matrix(0.97534872,0,0,0.97534872,-0.73801326,3.3275998)"
           style="fill:#ffffff">
          <path
             sodipodi:nodetypes="cscsc"
             inkscape:connector-curvature="0"
             id="path4731"
             d="m -33.115527,134.98688 c 0.651623,-2.43189 0.09296,-3.58217 -0.653837,-4.87565 -1.093263,-1.89359 -0.825758,-2.52917 0.630451,-5.0514 -0.545332,2.03521 -0.577069,2.40512 0.564791,4.23973 1.300224,2.08905 0.754507,3.44273 -0.541405,5.68732 z"
             style="opacity:0.5;fill:#ffffff;stroke:none;stroke-width:0.26458332px;stroke-linecap:butt;stroke-linejoin:miter;stroke-opacity:1" />
          <path
             style="opacity:0.5;fill:#ffffff;stroke:none;stroke-width:0.13182062px;stroke-linecap:butt;stroke-linejoin:miter;stroke-opacity:1"
             d="m -30.852493,129.08191 c -0.324651,-1.21161 -0.04631,-1.78471 0.325754,-2.42914 0.544686,-0.94343 0.411409,-1.26009 -0.314103,-2.51671 0.271695,1.01398 0.287507,1.19828 -0.28139,2.11232 -0.647797,1.0408 -0.37591,1.71523 0.269739,2.83353 z"
             id="path4733"
             inkscape:connector-curvature="0"
             sodipodi:nodetypes="cscsc" />
        </g>
        <g
           id="g4689"
           style="fill:#1d1d5b;fill-opacity:1"
           transform="translate(-2.4e-4,-0.01175)">
          <path
             inkscape:connector-curvature="0"
             id="path4587"
             d="m -29.559435,136.14363 v 0.92604 h 0.79375 0.39429 0.11679 v 2.64583 h -0.11679 -0.39429 -0.79375 v 0.92604 h 0.79375 0.859896 c 0.256511,0 0.463021,-0.2065 0.463021,-0.46302 0,-0.0168 -0.0035,-0.0327 -0.0052,-0.0491 h 0.0026 v -0.41393 -2.64583 -0.41393 h -0.0026 c 0.0019,-0.0164 0.0052,-0.0323 0.0052,-0.0491 0,-0.25652 -0.20651,-0.46302 -0.463021,-0.46302 h -0.859896 z"
             style="opacity:1;fill:#1d1d5b;fill-opacity:1;fill-rule:evenodd;stroke:none;stroke-width:0.76460487;stroke-linecap:round;stroke-linejoin:miter;stroke-miterlimit:4;stroke-dasharray:none;stroke-dashoffset:0.65120572;stroke-opacity:1;paint-order:normal" />
          <path
             inkscape:connector-curvature="0"
             id="rect4598"
             d="m -34.851101,135.61446 v 0.52917 3.15484 2.13682 c 0,0.29316 0.236008,0.52917 0.529166,0.52917 h 4.233334 c 0.293158,0 0.529166,-0.23601 0.529166,-0.52917 v -2.13682 -3.15484 -0.52917 h -0.529166 -4.233334 z"
             style="opacity:1;fill:#1d1d5b;fill-opacity:1;fill-rule:evenodd;stroke:none;stroke-width:2.94655037;stroke-linecap:round;stroke-linejoin:miter;stroke-miterlimit:4;stroke-dasharray:none;stroke-dashoffset:0.65120572;stroke-opacity:1;paint-order:normal" />
          <rect
             y="136.14363"
             x="-29.910536"
             height="0.92604166"
             width="0.70219982"
             id="rect4653"
             style="opacity:1;fill:#1d1d5b;fill-opacity:1;fill-rule:evenodd;stroke:none;stroke-width:0.79374999;stroke-linecap:round;stroke-linejoin:miter;stroke-miterlimit:4;stroke-dasharray:none;stroke-dashoffset:0.65120572;stroke-opacity:1;paint-order:normal" />
          <rect
             style="opacity:1;fill:#1d1d5b;fill-opacity:1;fill-rule:evenodd;stroke:none;stroke-width:0.79374999;stroke-linecap:round;stroke-linejoin:miter;stroke-miterlimit:4;stroke-dasharray:none;stroke-dashoffset:0.65120572;stroke-opacity:1;paint-order:normal"
             id="rect4655"
             width="0.70219982"
             height="0.92604166"
             x="-29.910536"
             y="139.7155" />
        </g>
      </g>
      <path
         sodipodi:nodetypes="cccccc"
         inkscape:connector-curvature="0"
         id="rect4556"
         d="m -28.770346,137.31572 h 5.291666 v 5.29166 l -2.702919,-1e-5 c -1.294373,0 -2.588749,-1.29438 -2.588749,-2.58875 z"
         style="opacity:1;fill:#a8dec1;fill-opacity:1;fill-rule:evenodd;stroke:none;stroke-width:0.99218708;stroke-linecap:round;stroke-linejoin:miter;stroke-miterlimit:4;stroke-dasharray:none;stroke-dashoffset:0.65120572;stroke-opacity:1;paint-order:normal" />
      <circle
         style="opacity:1;fill:#ffb17d;fill-opacity:1;fill-rule:evenodd;stroke:none;stroke-width:0.30868053;stroke-linecap:round;stroke-linejoin:miter;stroke-miterlimit:4;stroke-dasharray:none;stroke-dashoffset:0.65120572;stroke-opacity:1;paint-order:normal"
         id="circle4635"
         cx="-21.074169"
         cy="155.22093"
         r="1.8520833" />
      <path
         transform="scale(0.26458333)"
         id="path4598"
         d="m -149.71289,576.66211 a 9.9999995,9.9999995 0 0 0 -10,10 9.9999995,9.9999995 0 0 0 10,10 9.9999995,9.9999995 0 0 0 0.39258,-0.0156 v 0.004 l 29.92969,-1.2832 25.89062,-1.10938 13.943359,-0.59765 0.185547,-0.008 v -0.002 a 6.9999999,6.9999999 0 0 0 6.720703,-6.99023 A 6.9999999,6.9999999 0 0 0 -73.183594,584 c 1.218585,-1.03557 2.000119,-2.42801 2.091797,-3.97852 l -8.279297,-0.35546 -0.03711,-0.002 -6.394531,-0.27344 c -4.1e-5,6.5e-4 4.1e-5,10e-4 0,0.002 L -93.5,579.0625 l -25.89062,-1.10938 -29.92969,-1.2832 v 0.01 a 9.9999995,9.9999995 0 0 0 -0.39258,-0.0176 z"
         style="opacity:1;fill:#a8dec1;fill-opacity:1;stroke:none;stroke-width:0.99999994px;stroke-linecap:butt;stroke-linejoin:miter;stroke-opacity:1"
         inkscape:connector-curvature="0" />
      <g
         id="g4643">
        <circle
           style="opacity:1;fill:#ffb17d;fill-opacity:1;fill-rule:evenodd;stroke:none;stroke-width:0.30868053;stroke-linecap:round;stroke-linejoin:miter;stroke-miterlimit:4;stroke-dasharray:none;stroke-dashoffset:0.65120572;stroke-opacity:1;paint-order:normal"
           id="path4633"
           cx="-23.47868"
           cy="139.1678"
           r="1.8520833" />
        <path
           sodipodi:type="star"
           style="opacity:1;fill:#ffe680;fill-opacity:1;fill-rule:evenodd;stroke:none;stroke-width:0.52916664;stroke-linecap:round;stroke-linejoin:miter;stroke-miterlimit:4;stroke-dasharray:none;stroke-dashoffset:0.65120572;stroke-opacity:1;paint-order:normal"
           id="path4639"
           sodipodi:sides="6"
           sodipodi:cx="-23.47868"
           sodipodi:cy="139.1678"
           sodipodi:r1="1.8520833"
           sodipodi:r2="1.6039512"
           sodipodi:arg1="2.0943951"
           sodipodi:arg2="2.6179939"
           inkscape:flatsided="true"
           inkscape:rounded="0"
           inkscape:randomized="0"
           d="m -24.404721,140.77175 -0.926042,-1.60395 0.926042,-1.60395 1.852083,0 0.926042,1.60395 -0.926042,1.60395 z"
           inkscape:transform-center-y="-2.1184528e-06" />
      </g>
      <path
         id="path4645"
         transform="scale(0.26458333)"
         d="m -69.585938,573.65234 c -4.892099,-3e-5 -9.785171,4.8911 -9.785156,9.78321 v 10.21679 h 21.548828 l -1.548828,-19.99804 z"
         style="opacity:1;fill:#a8dec1;fill-opacity:1;fill-rule:evenodd;stroke:none;stroke-width:3.74999809;stroke-linecap:round;stroke-linejoin:miter;stroke-miterlimit:4;stroke-dasharray:none;stroke-dashoffset:0.65120572;stroke-opacity:1;paint-order:normal"
         inkscape:connector-curvature="0" />
      <path
         style="opacity:1;fill:#a8dec1;fill-opacity:1;stroke:none;stroke-width:0.26458332px;stroke-linecap:butt;stroke-linejoin:miter;stroke-opacity:1"
         d="m -16.502887,156.54384 a 2.6458332,2.6458332 0 0 0 3.614272,0.96844 2.6458332,2.6458332 0 0 0 0.96844,-3.61427 2.6458332,2.6458332 0 0 0 -0.0554,-0.088 l 8.66e-4,-5e-4 -4.253472,-6.6882 -3.679319,-5.78571 -1.981535,-3.11586 -0.02628,-0.0415 -4.5e-4,2.6e-4 a 1.8520833,1.8520833 0 0 0 -2.490807,-0.61521 1.8520833,1.8520833 0 0 0 -0.711729,2.46419 l -0.0017,0.001 0.02281,0.0435 1.707646,3.27399 3.170918,6.07924 3.665415,7.02772 0.0026,-0.001 a 2.6458332,2.6458332 0 0 0 0.04761,0.0924 z"
         id="path4619"
         inkscape:connector-curvature="0" />
      <path
         id="path4714"
         transform="scale(0.26458333)"
         d="m -71.626953,573.9375 c -0.285258,0.0758 -0.567887,0.16602 -0.847656,0.26953 -0.279769,0.10351 -0.556678,0.22034 -0.828125,0.35156 l 8.740234,16.75977 0.0098,-0.004 a 9.9999991,9.9999991 0 0 0 0.179687,0.34961 9.9999991,9.9999991 0 0 0 1.541016,1.98828 h 1.99414 a 9.9999991,9.9999991 0 0 1 -1.535156,-1.98828 9.9999991,9.9999991 0 0 1 -0.179687,-0.34961 l -0.0098,0.004 z"
         style="opacity:1;fill:#96ceb0;fill-opacity:1;stroke:none;stroke-width:0.99999994px;stroke-linecap:butt;stroke-linejoin:miter;stroke-opacity:1"
         inkscape:connector-curvature="0" />
    </g>
  </g>
</svg>
